# xmcd CD database file
#
# Track frame offsets:
#	150
#	10387
#	28915
#	48517
#	66095
#	80897
#	96412
#	110590
#	125707
#	140430
#	153872
#	169355
#	187642
#	200325
#	217175
#	233922
#	246342
#	259007
#	271580
#	283042
#	307755
#
# Disc length: 4310 seconds
#
# Revision: 3
# Processed by: cddbd v1.5.2PL0 Copyright (c) Steve Scherf et al.
# Submitted via: CDex 1.75
#
DISCID=3410d415
DTITLE=Various Artist - The Jazz Singers [Smithsonian Collection] Disc3
DYEAR=1998
DGENRE=Jazz
TTITLE0=Dakota Station - Give Me the Simple Life
TTITLE1=Nina Simone - Love Me or Leave Me
TTITLE2=Aretha Franklin - You Are My Sunshine
TTITLE3=Marvin Gaye - What's Going On
TTITLE4=Etta Jones - I'm Gonna Lock My Heart
TTITLE5=Billie Holiday - Yesterdays
TTITLE6=Billie Holiday - Strange Fruit
TTITLE7=Billie Holiday - You've Changed
TTITLE8=Ella Fitzgerald - Someone to Watch Over Me
TTITLE9=Ella Fitzgerald - Until the Real Thing Comes Along
TTITLE10=Fats Waller - Until the Real Thing Comes Along
TTITLE11=Dinah Washington - You Don't Know What Love Is
TTITLE12=June Christy - For All We Know
TTITLE13=Chris Connor - Angel Eyes
TTITLE14=Billy Eckstine - In the Still of the Night
TTITLE15=Nancy Wilson - Save Your Love for Me
TTITLE16=Shirley Horn - Travelin' Light
TTITLE17=Sarah Vaughan - Prelude to a Kiss
TTITLE18=Gloria Lynne - My Little Brown Book
TTITLE19=Johnny Hartman - Lush Life
TTITLE20=Carmen McRae - I Got It Bad (and That Ain't Good)
EXTD=From The Smithsonian Collection of Recordings YEAR: 1998
EXTT0=
EXTT1=
EXTT2=
EXTT3=
EXTT4=
EXTT5=
EXTT6=
EXTT7=
EXTT8=
EXTT9=
EXTT10=
EXTT11=
EXTT12=
EXTT13=
EXTT14=
EXTT15=
EXTT16=
EXTT17=
EXTT18=
EXTT19=
EXTT20=
PLAYORDER=
